<svg xmlns="http://www.w3.org/2000/svg" width="42" height="42" viewBox="0 0 42 42"><defs><style>.a{fill:#707070;}.b{fill:#fff;fill-rule:evenodd;}</style></defs><g transform="translate(-1840 -108)"><rect class="a" width="42" height="42" rx="21" transform="translate(1840 108)"/><g transform="translate(1850.5 118.5)"><path class="b" d="M4980.285,3280.836a1.4,1.4,0,0,1,0-2.8h0a1.4,1.4,0,0,1,0,2.8Zm.492-5.81h-14.41a.839.839,0,0,1-.837-.837v-6.434a2.236,2.236,0,0,1,2.229-2.229h11.625a2.236,2.236,0,0,1,2.23,2.229v6.436A.839.839,0,0,1,4980.777,3275.026Zm-14.077-10.968h-.759c-1.6,0-1.979,1.282-2,2.87h-.489a.507.507,0,0,0-.505.506v3.755a.508.508,0,0,0,.505.506h.489v7.295a4.966,4.966,0,0,0,1.093,2.832v1.62a.971.971,0,0,0,.968.967h1.7a.97.97,0,0,0,.966-.967v-1.391h9.792v1.391a.97.97,0,0,0,.967.967h1.7a.97.97,0,0,0,.967-.967v-1.62a4.971,4.971,0,0,0,1.094-2.832V3271.7h.489a.508.508,0,0,0,.505-.506v-3.755a.507.507,0,0,0-.505-.506h-.49c-.013-1.588-.324-2.87-1.926-2.87h-.829a1.334,1.334,0,0,0-1.14-.648h-11.461A1.331,1.331,0,0,0,4966.7,3264.058Zm1.558,15.38a1.4,1.4,0,0,1-1.4,1.4h0a1.4,1.4,0,0,1,0-2.8h0A1.4,1.4,0,0,1,4968.257,3279.438Z" transform="translate(-4962.951 -3263.41)"/></g></g></svg>