<svg xmlns="http://www.w3.org/2000/svg" width="15.172" height="15" viewBox="0 0 15.172 15"><defs><style>.a{fill:#fff;fill-rule:evenodd;}</style></defs><g transform="translate(-4962.95 -3263.41)"><path class="a" d="M4975.332,3275.857a1,1,0,0,1,0-2h0a1,1,0,0,1,0,2Zm.352-4.15h-10.293a.6.6,0,0,1-.6-.6v-4.6a1.6,1.6,0,0,1,1.592-1.592h8.3a1.6,1.6,0,0,1,1.593,1.592v4.6A.6.6,0,0,1,4975.684,3271.708Zm-10.055-7.834h-.542c-1.144,0-1.415.916-1.426,2.05h-.349a.362.362,0,0,0-.361.362v2.683a.362.362,0,0,0,.361.361h.349v5.211a3.541,3.541,0,0,0,.781,2.023v1.157a.693.693,0,0,0,.691.691h1.216a.693.693,0,0,0,.691-.691v-.994h6.994v.994a.693.693,0,0,0,.691.691h1.216a.692.692,0,0,0,.69-.691v-1.157a3.544,3.544,0,0,0,.782-2.023v-5.211h.349a.362.362,0,0,0,.361-.361v-2.683a.362.362,0,0,0-.361-.362h-.35c-.009-1.134-.231-2.05-1.375-2.05h-.592a.951.951,0,0,0-.814-.463h-8.187A.95.95,0,0,0,4965.629,3263.873Zm1.112,10.985a1,1,0,0,1-1,1h0a1,1,0,0,1,0-2h0A1,1,0,0,1,4966.741,3274.858Z" transform="translate(0)"/></g></svg>