<svg xmlns="http://www.w3.org/2000/svg" width="17" height="17" viewBox="0 0 17 17"><defs><style>.a{fill:#fff;}</style></defs><path class="a" d="M8.5.563a8.5,8.5,0,1,0,8.5,8.5A8.5,8.5,0,0,0,8.5.563Zm0,3.29A3.016,3.016,0,1,1,5.484,6.869,3.016,3.016,0,0,1,8.5,3.853Zm0,11.79a6.568,6.568,0,0,1-5.021-2.337,3.821,3.821,0,0,1,3.376-2.05.839.839,0,0,1,.243.038,4.538,4.538,0,0,0,1.4.236,4.521,4.521,0,0,0,1.4-.236.839.839,0,0,1,.243-.038,3.821,3.821,0,0,1,3.376,2.05A6.568,6.568,0,0,1,8.5,15.643Z" transform="translate(0 -0.563)"/></svg>