<svg xmlns="http://www.w3.org/2000/svg" width="17" height="16.256" viewBox="0 0 17 16.256"><defs><style>.a{fill:#707070;}</style></defs><g transform="translate(0 0)"><g transform="translate(0 0)"><g transform="translate(0 0)"><path class="a" d="M77.115,6.5a8.069,8.069,0,0,1,4.768,1.545.377.377,0,0,1,.1.5l-1.309,2.123a.377.377,0,0,1-.542.107,4.753,4.753,0,1,0,0,7.7.377.377,0,0,1,.542.107l1.309,2.123a.377.377,0,0,1-.1.5A8.128,8.128,0,1,1,77.115,6.5Z" transform="translate(-68.987 -6.5)"/><path class="a" d="M5.785,98.061a.377.377,0,0,1,.019-.387l.885-1.328H1.334a1.334,1.334,0,1,1,0-2.668H6.689L5.8,92.351a.377.377,0,0,1,.314-.586H8.669a.377.377,0,0,1,.314.168L10.9,94.8a.377.377,0,0,1,0,.418l-1.914,2.87a.377.377,0,0,1-.314.168H6.118A.377.377,0,0,1,5.785,98.061Z" transform="translate(6.04 -86.885)"/></g></g></g></svg>